<!-- Generator: Adobe Illustrator 24.3.0, SVG Export Plug-In  -->
<svg version="1.1" xmlns="http://www.w3.org/2000/svg" xmlns:xlink="http://www.w3.org/1999/xlink" x="0px" y="0px" width="382.6px"
	 height="112px" viewBox="0 0 382.6 112" style="overflow:visible;enable-background:new 0 0 382.6 112;" xml:space="preserve">
<style type="text/css">
	.st0{fill:#333333;}
	.st1{fill-rule:evenodd;clip-rule:evenodd;fill:#DA1F33;}
	.st2{fill-rule:evenodd;clip-rule:evenodd;fill:#F47920;}
	.st3{fill:#888888;}
	.st4{fill:#EEEEEE;}
</style>
<defs>
</defs>
<path class="st0" d="M94,112H18c-9.9,0-18-8.1-18-18V18C0,8.1,8.1,0,18,0h76c9.9,0,18,8.1,18,18v76C112,103.9,103.9,112,94,112z"/>
<g>
	<path class="st1" d="M56,42.6c7.3,0,13.4,6.1,13.3,13.4s-6.1,13.4-13.4,13.3c-7.3,0-13.4-6.1-13.3-13.4S48.7,42.5,56,42.6z"/>
	<path class="st2" d="M56,86.8c16.9,0,30.8-13.6,30.8-30.7c0-4.7-1-9.3-3-13.5H64.4c7.5,4.5,9.8,14.2,5.2,21.6
		c-2.9,4.8-8,7.6-13.6,7.6H20.8v14.9H56V86.8z M56,25.2L56,25.2C39.1,25.2,25.3,39,25.2,56c0,4.7,1,9.2,3,13.4h19.4
		c-7.5-4.5-9.8-14.2-5.2-21.6c2.9-4.8,8-7.6,13.6-7.6h35.2v-15H56z"/>
</g>
<g>
	<path class="st3" d="M141,67.5V38.7h10.6c6.1,0,11.1,2.7,11.1,8.9c0,3-1.2,5.4-3.2,6.8c-2,1.4-4.6,2.1-7.8,2.1h-4.3v11H141z
		 M147.5,51.1h4c2.3,0,4.5-0.8,4.5-3.5c0-1.4-0.5-2.3-1.4-2.8c-0.9-0.5-1.8-0.6-3.2-0.6h-4V51.1z"/>
	<path class="st3" d="M168.1,59.4c0.7,0.7,1.6,1.3,3,1.8s2.5,0.7,3.6,0.7c2.5,0,4.1-0.9,4.1-2.6c0-1.8-1.4-2.6-4-3.4
		c-2.4-0.8-4.2-1.5-5.4-2.1c-3.1-1.7-4.6-4-4.6-6.9c0-3.1,1.1-5.4,3.1-6.7c2-1.3,4.4-1.9,7.4-1.9c1.8,0,3.6,0.3,5.2,0.9
		c1.6,0.6,3,1.4,4.1,2.4l-3.6,4.7c-0.7-0.6-1.6-1.1-2.7-1.5c-1.1-0.4-2.1-0.6-3-0.6c-1.3,0-2.4,0.2-3.2,1c-0.4,0.4-0.6,0.9-0.6,1.6
		c0.1,1.2,0.9,1.9,2.5,2.6c0.5,0.3,1,0.5,1.5,0.6c0.4,0.2,1,0.3,1.7,0.6c0.8,0.3,1.5,0.5,2.2,0.8c0.6,0.3,1.3,0.6,2.2,1.1
		c0.8,0.5,1.4,1,2,1.5c1,1.1,1.9,2.9,1.9,4.9c0,3.1-1.3,5.7-3.4,7s-4.5,2.1-7.3,2.1c-2.1,0-4.1-0.3-6.1-0.9c-2-0.6-3.7-1.5-5-2.7
		L168.1,59.4z"/>
	<path class="st3" d="M189.2,67.5V38.7h9.9c9.4,0,16.8,4.9,16.8,14.4s-7.4,14.4-16.8,14.4H189.2z M195.7,61.6h3.5
		c5.7,0,10-2.5,10-8.5c0-2.9-1.1-5.1-2.9-6.5c-1.9-1.3-4.3-2-7.2-2h-3.3V61.6z"/>
	<path class="st4" d="M220,67.5V38.7h6.6l8.2,12l8.2-12h6.7v28.8h-6.5V49.2h-0.1l-8.2,12h-0.3l-8.2-12h-0.1v18.4H220z"/>
	<path class="st4" d="M253.3,57c0-3.2,1.1-5.8,3.2-7.8c2.1-2.1,4.8-3.1,8-3.1c3.2,0,5.9,1,8,3.1c2.1,2.1,3.2,4.7,3.2,7.8
		s-1.1,5.8-3.2,7.8c-2.2,2.1-4.8,3.1-8,3.1c-3.2,0-5.9-1-8-3.1C254.3,62.8,253.3,60.2,253.3,57z M260.9,60.9
		c0.9,1.1,2.2,1.6,3.6,1.6c1.5,0,2.7-0.5,3.6-1.6c0.9-1,1.3-2.4,1.3-3.9c0-1.5-0.5-2.8-1.4-3.9c-0.9-1.1-2.1-1.6-3.6-1.6
		c-1.5,0-2.7,0.5-3.6,1.6c-0.9,1.1-1.4,2.4-1.4,3.9C259.5,58.5,259.9,59.8,260.9,60.9z"/>
	<path class="st4" d="M280.4,49.2c2-2,4.6-3.1,7.8-3.1c3.8,0,6.3,1.2,8.3,3.6l-4,3.8c-1.2-1.3-2.7-2-4.2-2c-1.4,0-2.6,0.5-3.4,1.5
		c-0.9,1-1.3,2.4-1.3,4c0,1.7,0.5,3.1,1.4,4c0.9,1,2.1,1.4,3.5,1.4c1.8,0,2.9-0.6,4.3-2.1l4,3.7c-2.2,2.5-4.7,3.8-8.7,3.8
		c-3.1,0-5.7-1-7.7-3s-3.1-4.6-3.1-7.9C277.3,53.8,278.4,51.2,280.4,49.2z"/>
	<path class="st4" d="M298.7,67.5V36.6h6.2v16.9l6.4-7h7.2l-7.8,8.3l8,12.6h-6.9l-5.1-8.3l-1.6,1.8v6.5H298.7z"/>
	<path class="st4" d="M319.8,46.5h6.2v11.8c0,1.3,0.3,2.3,1,3c0.7,0.7,1.5,1.1,2.5,1.1c2,0,3.5-1.5,3.5-4.2V46.5h6.3v21h-6.3v-2.1
		h-0.1c-1.4,1.7-3.4,2.5-5.8,2.5c-2.1,0-3.8-0.7-5.2-2.2s-2.1-3.4-2.1-5.9V46.5z"/>
	<path class="st4" d="M343,75.4V46.5h6.2v2.2h0.1c1.5-1.7,3.6-2.6,6.1-2.6c2.4,0,4.7,0.9,6.5,2.6c1.8,1.7,2.9,4.7,2.9,8.3
		s-1.1,6.5-3,8.2c-1.8,1.7-4.1,2.7-6.6,2.7c-2.5,0-4.4-0.9-5.9-2.6h-0.1v10H343z M350.3,61c0.9,1,2.1,1.5,3.4,1.5
		c1.4,0,2.6-0.5,3.5-1.4c0.9-1,1.4-2.3,1.4-4c0-1.7-0.5-3-1.4-4c-1-1-2.1-1.5-3.4-1.5c-1.3,0-2.5,0.5-3.4,1.5c-0.9,1-1.4,2.4-1.4,4
		C348.9,58.7,349.4,60,350.3,61z"/>
	<path class="st4" d="M369.1,61.4c1.6,1.2,3.2,1.8,4.9,1.8c1.5,0,2.3-0.5,2.3-1.4c0-0.4-0.2-0.7-0.5-1c-0.2-0.2-0.6-0.4-0.8-0.5
		c-0.2-0.1-0.8-0.4-1.1-0.5c-0.3-0.1-1-0.4-1.4-0.5c-1.1-0.4-1.2-0.5-2.3-1c-1-0.5-1.4-0.8-2.1-1.5c-1-0.9-1.5-2.2-1.6-4
		c0-2.1,0.7-3.7,2.3-4.9c1.5-1.2,3.4-1.8,5.6-1.8c3.2,0,5.7,0.8,7.7,2.4l-3.2,3.9c-1.3-1-2.7-1.5-4.2-1.5c-1.3,0-1.9,0.6-1.9,1.6
		c0.1,0.9,0.6,1.4,1.6,1.9c0.7,0.3,1.1,0.5,1.9,0.7c0.4,0.1,0.7,0.2,0.8,0.3c3.6,1.3,5.5,3.3,5.5,6c0,4.6-4.3,6.6-8.8,6.6
		c-3,0-5.7-0.8-8.1-2.4L369.1,61.4z"/>
</g>
</svg>
