<!-- Generator: Adobe Illustrator 24.3.0, SVG Export Plug-In  -->
<svg version="1.1" xmlns="http://www.w3.org/2000/svg" xmlns:xlink="http://www.w3.org/1999/xlink" x="0px" y="0px" width="166px"
	 height="166px" viewBox="0 0 166 166" style="overflow:visible;enable-background:new 0 0 166 166;" xml:space="preserve">
<style type="text/css">
	.st0{fill-rule:evenodd;clip-rule:evenodd;fill:#FF9600;}
	.st1{fill-rule:evenodd;clip-rule:evenodd;fill:#FFFFFF;}
</style>
<defs>
</defs>

<path class="st1" d="M83.5,59.3c-8.4-0.1-16.3,4.2-20.6,11.3c-6.8,11.1-3.3,25.7,8,32.4H41.5c-3.1-6.3-4.7-13.1-4.7-20.1
	c0.1-25.5,21-46.1,46.7-46.1H137v22.5H83.5z M83.5,103c-11.2,0-20.3-9-20.2-20.1c0-11.1,9.1-20.1,20.3-20c11.2,0,20.3,9,20.2,20.1
	C103.8,94,94.7,103,83.5,103z M104.1,95.4c6.8-11.1,3.3-25.7-8-32.4h29.5c3.1,6.3,4.7,13.3,4.7,20.3c-0.1,25.5-21,46-46.8,45.9H30
	v-22.5h53.5C91.9,106.8,99.7,102.5,104.1,95.4z"/>
</svg>
