<!-- Generator: Adobe Illustrator 24.3.0, SVG Export Plug-In  -->
<svg version="1.1" xmlns="http://www.w3.org/2000/svg" xmlns:xlink="http://www.w3.org/1999/xlink" x="0px" y="0px" width="90.1px"
	 height="90.1px" viewBox="0 0 90.1 90.1" style="overflow:visible;enable-background:new 0 0 90.1 90.1;" xml:space="preserve">
<style type="text/css">
	.st0{fill:#666;}
	.st1{fill:#888;}
</style>
<defs>
</defs>
<g>
	<path class="st0" d="M32.5,8c6.5,0,12.7,2.5,17.3,7.2c9.6,9.6,9.6,25.1,0,34.6C45.2,54.5,39,57,32.5,57s-12.7-2.5-17.3-7.2
		S8,39,8,32.5s2.5-12.7,7.2-17.3S26,8,32.5,8 M32.5,0c-8.3,0-16.6,3.2-23,9.5c-12.7,12.7-12.7,33.3,0,46c6.3,6.3,14.7,9.5,23,9.5
		c8.3,0,16.6-3.2,23-9.5c12.7-12.7,12.7-33.3,0-46C49.1,3.2,40.8,0,32.5,0L32.5,0z"/>
</g>
<path class="st1" d="M89.6,83.6l-6,6c-0.7,0.7-1.8,0.7-2.5,0L57.4,65.9c-0.7-0.7-0.7-1.8,0-2.5l6-6c0.7-0.7,1.8-0.7,2.5,0l23.7,23.7
	C90.3,81.8,90.3,82.9,89.6,83.6z"/>
<path class="st1" d="M70.1,68.8l-1.7,1.7c-0.7,0.7-1.8,0.7-2.5,0L55.3,59.9c-0.7-0.7-0.7-1.8,0-2.5l1.7-1.7c0.7-0.7,1.8-0.7,2.5,0
	l10.6,10.6C70.8,66.9,70.8,68.1,70.1,68.8z"/>
</svg>
