<!-- Generator: Adobe Illustrator 24.3.0, SVG Export Plug-In  -->
<svg version="1.1" xmlns="http://www.w3.org/2000/svg" xmlns:xlink="http://www.w3.org/1999/xlink" x="0px" y="0px" width="24px"
	 height="24px" viewBox="0 0 24 24" style="overflow:visible;enable-background:new 0 0 24 24;" xml:space="preserve">
<style type="text/css">
	.st0{fill:#CCCCCC;}
</style>
<defs>
</defs>
<g>
	<path class="st0" d="M19,5v17H2V5H19 M19,3H2C0.9,3,0,3.9,0,5v17c0,1.1,0.9,2,2,2h17c1.1,0,2-0.9,2-2V5C21,3.9,20.1,3,19,3L19,3z"
		/>
</g>
<path class="st0" d="M22,20H6c-1.1,0-2-0.9-2-2V2c0-1.1,0.9-2,2-2h16c1.1,0,2,0.9,2,2v16C24,19.1,23.1,20,22,20z"/>
</svg>
