<!-- Generator: Adobe Illustrator 24.3.0, SVG Export Plug-In  -->
<svg version="1.1" xmlns="http://www.w3.org/2000/svg" xmlns:xlink="http://www.w3.org/1999/xlink" x="0px" y="0px" width="24px"
	 height="32px" viewBox="0 0 24 32" style="overflow:visible;enable-background:new 0 0 24 32;" xml:space="preserve">
<style type="text/css">
	.st0{fill:#CCCCCC;}
</style>
<defs>
</defs>
<g>
	<path class="st0" d="M20.2,2c1,0,1.8,0.9,1.8,2v24c0,1.1-0.8,2-1.8,2H3.8c-1,0-1.8-0.9-1.8-2V4c0-1.1,0.8-2,1.8-2H20.2 M20.2,0H3.8
		C1.7,0,0,1.8,0,4v24c0,2.2,1.7,4,3.8,4h16.3c2.1,0,3.8-1.8,3.8-4V4C24,1.8,22.3,0,20.2,0L20.2,0z"/>
</g>
<path class="st0" d="M19,9H5C4.4,9,4,8.6,4,8V6c0-0.6,0.4-1,1-1h14c0.6,0,1,0.4,1,1v2C20,8.6,19.6,9,19,9z"/>
<circle class="st0" cx="6" cy="13" r="2"/>
<circle class="st0" cx="12" cy="13" r="2"/>
<circle class="st0" cx="18" cy="13" r="2"/>
<circle class="st0" cx="6" cy="19" r="2"/>
<circle class="st0" cx="12" cy="19" r="2"/>
<circle class="st0" cx="18" cy="19" r="2"/>
<circle class="st0" cx="6" cy="25" r="2"/>
<circle class="st0" cx="12" cy="25" r="2"/>
<circle class="st0" cx="18" cy="25" r="2"/>
</svg>

