<!-- Generator: Adobe Illustrator 24.3.0, SVG Export Plug-In  -->
<svg version="1.1" xmlns="http://www.w3.org/2000/svg" xmlns:xlink="http://www.w3.org/1999/xlink" x="0px" y="0px" width="32px"
	 height="32px" viewBox="0 0 32 32" style="overflow:visible;enable-background:new 0 0 32 32;" xml:space="preserve">
<style type="text/css">
	.st0{opacity:0;}
	.st1{fill:#FFFFFF;}
</style>
<defs>
</defs>
<g class="st0">
	<g>
		<path class="st1" d="M28,2c1.1,0,2,0.9,2,2v24c0,1.1-0.9,2-2,2H4c-1.1,0-2-0.9-2-2V4c0-1.1,0.9-2,2-2H28 M28,0H4C1.8,0,0,1.8,0,4
			v24c0,2.2,1.8,4,4,4h24c2.2,0,4-1.8,4-4V4C32,1.8,30.2,0,28,0L28,0z"/>
	</g>
</g>
<circle class="st1" cx="7" cy="7" r="2"/>
<circle class="st1" cx="7" cy="13" r="2"/>
<circle class="st1" cx="7" cy="19" r="2"/>
<circle class="st1" cx="7" cy="25" r="2"/>
<path class="st1" d="M13,15H7c-1.1,0-2-0.9-2-2V7c0-1.1,0.9-2,2-2h6c1.1,0,2,0.9,2,2v6C15,14.1,14.1,15,13,15z"/>
<path class="st1" d="M25,15h-6c-1.1,0-2-0.9-2-2V7c0-1.1,0.9-2,2-2h6c1.1,0,2,0.9,2,2v6C27,14.1,26.1,15,25,15z"/>
<path class="st1" d="M25,27h-6c-1.1,0-2-0.9-2-2v-6c0-1.1,0.9-2,2-2h6c1.1,0,2,0.9,2,2v6C27,26.1,26.1,27,25,27z"/>
<path class="st1" d="M13,27H7c-1.1,0-2-0.9-2-2v-6c0-1.1,0.9-2,2-2h6c1.1,0,2,0.9,2,2v6C15,26.1,14.1,27,13,27z"/>
</svg>
