<!-- Generator: Adobe Illustrator 24.3.0, SVG Export Plug-In  -->
<svg version="1.1" xmlns="http://www.w3.org/2000/svg" xmlns:xlink="http://www.w3.org/1999/xlink" x="0px" y="0px" width="22px"
	 height="32px" viewBox="0 0 22 32" style="overflow:visible;enable-background:new 0 0 22 32;" xml:space="preserve">
<style type="text/css">
	.st0{fill:#CCCCCC;}
	.st1{fill:#ccc;}
</style>
<defs>
</defs>
<g id="MH_TROFIMA_1_">
	<g>
		<path class="st0" d="M14,13c3.3,0,6,2.7,6,6v8c0,0.6-0.4,1-1,1H3c-0.6,0-1-0.4-1-1v-8c0-3.3,2.7-6,6-6H14 M14,11H8
			c-4.4,0-8,3.6-8,8v8c0,1.7,1.3,3,3,3h16c1.7,0,3-1.3,3-3v-8C22,14.6,18.4,11,14,11L14,11z"/>
	</g>
	<g>
		<path class="st0" d="M17.5,28h-13C3.7,28,3,28.7,3,29.5v1C3,31.3,3.7,32,4.5,32h13c0.8,0,1.5-0.7,1.5-1.5v-1
			C19,28.7,18.3,28,17.5,28L17.5,28z"/>
	</g>
	<g>
		<path class="st0" d="M14,9v1H8V9H14 M15,7H7C6.4,7,6,7.4,6,8v4h10V8C16,7.4,15.6,7,15,7L15,7z"/>
	</g>
	<g>
		<path class="st0" d="M14,5H8C7.4,5,7,5.4,7,6v2h8V6C15,5.4,14.6,5,14,5L14,5z"/>
	</g>
	<g>
		<path class="st0" d="M12,2h-2C9.4,2,9,2.4,9,3v3h4V3C13,2.4,12.6,2,12,2L12,2z"/>
	</g>
	<g>
		<path class="st0" d="M16,23H6c-0.6,0-1-0.4-1-1v-1c0-2.8,2.2-5,5-5h2c2.8,0,5,2.2,5,5v1C17,22.6,16.6,23,16,23z"/>
	</g>
	<g>
		<path class="st1" d="M5,2C4.4,2,4,1.6,4,1h7c0.6,0,1,0.4,1,1H5z"/>
		<path class="st0" d="M11,0H4C3.4,0,3,0.4,3,1c0,1.1,0.9,2,2,2h7c0.6,0,1-0.4,1-1C13,0.9,12.1,0,11,0L11,0z"/>
	</g>
</g>
</svg>
