<!-- Generator: Adobe Illustrator 24.3.0, SVG Export Plug-In  -->
<svg version="1.1" xmlns="http://www.w3.org/2000/svg" xmlns:xlink="http://www.w3.org/1999/xlink" x="0px" y="0px" width="29px"
	 height="17px" viewBox="0 0 29 17" style="overflow:visible;enable-background:new 0 0 29 17;" xml:space="preserve">
<style type="text/css">
	.st0{fill:none;stroke:#888;stroke-width:2;stroke-miterlimit:10;}
	.st1{fill:#ccc;}
</style>
<defs>
</defs>
<line class="st0" x1="8.5" y1="4.5" x2="28" y2="13.9"/>
<line class="st0" x1="23.5" y1="7.5" x2="2.6" y2="13.9"/>
<g>
	<path class="st1" d="M15.5,2c2.9,0,5.4,1.8,6.2,4.6L22.1,8l1.4,0c1.9,0,3.4,1.6,3.4,3.5c0,1.8-1.4,3.3-3.2,3.5l-0.2,0H7.4l-0.3,0
		C4.2,14.9,2,12.7,2,10c0-2.8,2.4-5,5.2-5C7.6,5,8,5,8.4,5.1l1.2,0.3l0.8-1C11.7,2.9,13.5,2,15.5,2 M15.5,0c-2.7,0-5.1,1.2-6.6,3.2
		C8.4,3.1,7.8,3,7.2,3C3.2,3,0,6.1,0,10c0,3.8,3.1,6.9,7,7v0h17v0c2.8-0.3,5-2.6,5-5.5c0-3-2.4-5.4-5.4-5.5C22.6,2.5,19.3,0,15.5,0
		L15.5,0z"/>
</g>
</svg>

