<?xml version="1.0" encoding="UTF-8"?>
<svg id="Layer_1" data-name="Layer 1"
  xmlns="http://www.w3.org/2000/svg" viewBox="0 0 23.9 32">
  <defs>
    <style>
      .cls-1 {
        fill: rgba(204, 204, 203, 0);
      }

      .cls-2 {
        fill: #cccccb;
      }
    </style>
  </defs>
  <path class="cls-1" d="M20.2,0H3.8C1.7,0,0,1.8,0,4v24c0,2.2,1.7,4,3.8,4h16.3c2.1,0,3.8-1.8,3.8-4V4c.1-2.2-1.6-4-3.7-4h0Z"/>
  <g>
    <g>
      <path class="cls-2" d="M7.76,6.16c.69,0,1.34.27,1.83.76l3.04,3.04c-.04.06-.08.13-.12.19-.96.94-1.41,2.36-1.18,3.78.22,1.36,1.03,2.47,2.2,3.02.71.6,1.6.92,2.6.92.16,0,.31-.01.43-.03.12.01.26.03.42.03,1.02,0,1.93-.33,2.64-.93l2.07,2.07c.26.26.4.6.4.97s-.14.71-.4.97l-5.3,5.3c-.26.26-.6.4-.97.4s-.71-.14-.97-.4L2.35,14.17c-.49-.49-.76-1.14-.76-1.83v-4.89c0-.7.57-1.28,1.28-1.28h4.89M7.76,4.66H2.86C1.33,4.66.09,5.91.09,7.44v4.89c0,1.09.43,2.13,1.2,2.89l12.1,12.1c.56.56,1.3.84,2.03.84s1.47-.28,2.03-.84l5.3-5.3c1.12-1.12,1.12-2.94,0-4.06l-3.34-3.34c-.3.97-1.11,1.76-2.43,1.76-.15,0-.28-.02-.42-.04-.14.02-.28.04-.44.04-.77,0-1.35-.28-1.78-.69-1.86-.71-2.08-3.41-.65-4.58.23-.46.59-.86,1.09-1.1l-4.14-4.14c-.77-.77-1.81-1.2-2.89-1.2h0Z"/>
      <path class="cls-2" d="M5.58,8.59c-.4,0-.8.15-1.11.46-.61.61-.61,1.6,0,2.21.31.31.71.46,1.11.46s.8-.15,1.11-.46c.61-.61.61-1.6,0-2.21-.31-.31-.71-.46-1.11-.46h0Z"/>
    </g>
    <path class="cls-2" d="M16.56,3.84c-4.01,0-7.26,3.25-7.26,7.26s3.25,7.27,7.26,7.27,7.26-3.25,7.26-7.27-3.25-7.26-7.26-7.26ZM16.16,16.26c-.78,0-1.31-.58-1.31-1.35s.54-1.34,1.31-1.34,1.32.54,1.33,1.34c0,.77-.52,1.35-1.33,1.35ZM17.95,10.74c-.53.61-.77,1.19-.75,1.85v.27h-1.97v-.39c-.06-.75.19-1.52.86-2.3.47-.58.86-1.07.86-1.56s-.34-.87-1.08-.88c-.49,0-1.08.17-1.47.44l-.5-1.61c.55-.31,1.42-.61,2.47-.61,1.95,0,2.85,1.08,2.85,2.31,0,1.12-.71,1.86-1.27,2.48Z"/>
  </g>
</svg>