<!-- Generator: Adobe Illustrator 24.3.0, SVG Export Plug-In  -->
<svg version="1.1" xmlns="http://www.w3.org/2000/svg" xmlns:xlink="http://www.w3.org/1999/xlink" x="0px" y="0px" width="22px"
	 height="31px" viewBox="0 0 22 31" style="overflow:visible;enable-background:new 0 0 22 31;" xml:space="preserve">
<style type="text/css">
	.st0{fill:#CCCCCC;}
</style>
<defs>
</defs>
<g>
	<g>
		<path class="st0" d="M8,13v5H2v-5H8 M8,11H2c-1.1,0-2,0.9-2,2v5c0,1.1,0.9,2,2,2h6c1.1,0,2-0.9,2-2v-5C10,11.9,9.1,11,8,11L8,11z"
			/>
	</g>
</g>
<g>
	<path class="st0" d="M20,13v5h-6v-5H20 M20,11h-6c-1.1,0-2,0.9-2,2v5c0,1.1,0.9,2,2,2h6c1.1,0,2-0.9,2-2v-5C22,11.9,21.1,11,20,11
		L20,11z"/>
</g>
<g>
	<g>
		<path class="st0" d="M8,24v5H2v-5H8 M8,22H2c-1.1,0-2,0.9-2,2v5c0,1.1,0.9,2,2,2h6c1.1,0,2-0.9,2-2v-5C10,22.9,9.1,22,8,22L8,22z"
			/>
	</g>
</g>
<g>
	<g>
		<path class="st0" d="M20,24v5h-6v-5H20 M20,22h-6c-1.1,0-2,0.9-2,2v5c0,1.1,0.9,2,2,2h6c1.1,0,2-0.9,2-2v-5C22,22.9,21.1,22,20,22
			L20,22z"/>
	</g>
</g>
<g>
	<path class="st0" d="M11,1c4.5,0,7.7,1,9.7,3c-2,2-5.2,3-9.7,3C6.5,7,3.3,6,1.3,4C3.3,2,6.5,1,11,1 M11,0C6.4,0,2.4,1,0,4
		c2.4,3,6.4,4,11,4c4.6,0,8.6-1,11-4C19.6,1,15.6,0,11,0L11,0z"/>
</g>
<circle class="st0" cx="11" cy="4" r="3"/>
</svg>
