<!-- Generator: Adobe Illustrator 24.3.0, SVG Export Plug-In  -->
<svg version="1.1" xmlns="http://www.w3.org/2000/svg" xmlns:xlink="http://www.w3.org/1999/xlink" x="0px" y="0px" width="22px"
	 height="32px" viewBox="0 0 22 32" style="overflow:visible;enable-background:new 0 0 22 32;" xml:space="preserve">
<style type="text/css">
	.st0{fill:#ccc;}
</style>
<defs>
</defs>
<path class="st0" d="M16,13H6V8c0-0.6,0.4-1,1-1h8c0.6,0,1,0.4,1,1V13z"/>
<g>
	<path class="st0" d="M14,14v4H8v-4H14 M16,12H6v7c0,0.6,0.4,1,1,1h8c0.6,0,1-0.4,1-1V12L16,12z"/>
</g>
<g>
	<path class="st0" d="M19,6v20H3V6H19 M21,4H1v24h20V4L21,4z"/>
</g>
<g>
	<path class="st0" d="M20,2v2H2V2H20 M21,0H1C0.4,0,0,0.4,0,1v4c0,0.6,0.4,1,1,1h20c0.6,0,1-0.4,1-1V1C22,0.4,21.6,0,21,0L21,0z"/>
</g>
<g>
	<path class="st0" d="M20,28v2H2v-2H20 M21,26H1c-0.6,0-1,0.4-1,1v4c0,0.6,0.4,1,1,1h20c0.6,0,1-0.4,1-1v-4C22,26.4,21.6,26,21,26
		L21,26z"/>
</g>
<g>
	<polygon class="st0" points="21,12 1,12 1,14 21,14 21,12 	"/>
</g>
</svg>
