<!-- Generator: Adobe Illustrator 24.3.0, SVG Export Plug-In  -->
<svg version="1.1" xmlns="http://www.w3.org/2000/svg" xmlns:xlink="http://www.w3.org/1999/xlink" x="0px" y="0px" width="33px"
	 height="33px" viewBox="0 0 33 33" style="overflow:visible;enable-background:new 0 0 33 33;" xml:space="preserve">
<style type="text/css">
	.st0{fill:#ccc;stroke:#ccc;stroke-miterlimit:10;}
</style>
<defs>
</defs>
<path class="st0" d="M27.2,28c-0.3,0-0.5,0-0.8-0.1v0.6c0,1.1-0.9,2-2,2h-20c-1.1,0-2-0.9-2-2v-20c0-1.1,0.9-2,2-2h0.8
	c-0.2-0.7-0.2-1.3,0-2H4.5c-2.2,0-4,1.8-4,4v20c0,2.2,1.8,4,4,4h20c2.2,0,4-1.8,4-4v-0.7C28.1,27.9,27.7,28,27.2,28z"/>
<g>
	<path class="st0" d="M29.7,4.7L13,21.4c-0.4,0.4-1,0.4-1.4,0l0,0c-0.4-0.4-0.4-1,0-1.4L28.3,3.3c0.4-0.4,1-0.4,1.4,0l0,0
		C30.1,3.7,30.1,4.4,29.7,4.7z"/>
	<path class="st0" d="M26.2,2.2c-0.3-0.3-0.4-0.8-0.1-1.1c0.2-0.4,0.7-0.6,1.1-0.6l3.9,0c0.8,0,1.4,0.6,1.4,1.4v3.9
		c0,0.6-0.4,1.1-0.9,1.3c-0.2,0.1-0.5,0-0.7-0.2L26.2,2.2z"/>
</g>
<path class="st0" d="M30.5,24.5c0,1.1-0.9,2-2,2h-20c-1.1,0-2-0.9-2-2v-20c0-1.1,0.9-2,2-2h14c0.6,0,1-0.4,1-1v0c0-0.6-0.4-1-1-1
	h-14c-2.2,0-4,1.8-4,4v20c0,2.2,1.8,4,4,4h20c2.2,0,4-1.8,4-4v-14c0-0.6-0.4-1-1-1h0c-0.6,0-1,0.4-1,1V24.5z"/>
</svg>
