<!-- Generator: Adobe Illustrator 24.3.0, SVG Export Plug-In  -->
<svg version="1.1" xmlns="http://www.w3.org/2000/svg" xmlns:xlink="http://www.w3.org/1999/xlink" x="0px" y="0px" width="32px"
	 height="32px" viewBox="0 0 32 32" style="overflow:visible;enable-background:new 0 0 32 32;" xml:space="preserve">
<style type="text/css">
	.st0{fill:#CCCCCC;}
</style>
<defs>
</defs>
<circle class="st0" cx="16" cy="16" r="16"/>
<path d="M16,20L16,20c-1.1,0-2-0.9-2-2V8c0-1.1,0.9-2,2-2h0c1.1,0,2,0.9,2,2v10C18,19.1,17.1,20,16,20z"/>
<path d="M16,26L16,26c-1.1,0-2-0.9-2-2v0c0-1.1,0.9-2,2-2h0c1.1,0,2,0.9,2,2v0C18,25.1,17.1,26,16,26z"/>
</svg>
