<!-- Generator: Adobe Illustrator 24.3.0, SVG Export Plug-In  -->
<svg version="1.1" xmlns="http://www.w3.org/2000/svg" xmlns:xlink="http://www.w3.org/1999/xlink" x="0px" y="0px" width="23px"
	 height="32px" viewBox="0 0 23 32" style="overflow:visible;enable-background:new 0 0 23 32;" xml:space="preserve">
<style type="text/css">
	.st0{fill:#ccc;}
	.st1{fill:none;stroke:#ccc;stroke-width:2;stroke-miterlimit:10;}
</style>
<defs>
</defs>
<g>
	<path class="st0" d="M17,3v25H4V3H17 M18,1H3C2.4,1,2,1.4,2,2v27c0,0.6,0.4,1,1,1h15c0.6,0,1-0.4,1-1V2C19,1.4,18.6,1,18,1L18,1z"
		/>
</g>
<g>
	<path class="st0" d="M18.5,28h-16C1.7,28,1,28.7,1,29.5v1C1,31.3,1.7,32,2.5,32h16c0.8,0,1.5-0.7,1.5-1.5v-1
		C20,28.7,19.3,28,18.5,28L18.5,28z"/>
</g>
<g>
	<path class="st0" d="M16.5,0h-7C8.7,0,8,0.7,8,1.5S8.7,3,9.5,3h7C17.3,3,18,2.3,18,1.5S17.3,0,16.5,0L16.5,0z"/>
</g>
<path class="st1" d="M18.5,4L18.5,4C20.4,4,22,5.6,22,7.5v11c0,1.9-1.6,3.5-3.5,3.5h0"/>
<g>
	<path class="st0" d="M8.5,7C7.7,7,7,7.7,7,8.5v16C7,25.3,7.7,26,8.5,26s1.5-0.7,1.5-1.5v-16C10,7.7,9.3,7,8.5,7L8.5,7z"/>
</g>
<path class="st0" d="M3,6L3,6C1.3,6,0,4.7,0,3v0h3V6z"/>
</svg>
