<?xml version="1.0" encoding="UTF-8"?>
<svg id="Layer_1" data-name="Layer 1" xmlns="http://www.w3.org/2000/svg" viewBox="0 0 23.9 32">
  <defs>
    <style>
      .cls-1 {
        fill: #cccccb;
      }
    </style>
  </defs>
  <path class="cls-1" d="M20.2,2c1,0,1.8.9,1.8,2v24c0,1.1-.8,2-1.8,2H3.8c-1,0-1.8-.9-1.8-2V4c0-1.1.8-2,1.8-2h16.4M20.2,0H3.8C1.7,0,0,1.8,0,4v24c0,2.2,1.7,4,3.8,4h16.3c2.1,0,3.8-1.8,3.8-4V4c.1-2.2-1.6-4-3.7-4h0Z"/>
  <path class="cls-1" d="M17.29,8.3l-4.59-4.6c-.41-.41-1.08-.41-1.49,0l-4.6,4.6c-.42.42-.66.99-.66,1.59v17.57c0,.63.51,1.14,1.14,1.14h9.72c.63,0,1.14-.51,1.14-1.14V9.89c0-.6-.23-1.17-.66-1.59ZM11.95,25.04c0,.29-.24.53-.54.53h-.92c-.3,0-.54-.24-.54-.53v-.93c0-.3.24-.54.54-.54h.92c.3,0,.54.24.54.54v.93ZM15.95,19.05c0,.3-.24.54-.53.54h-2.93c-.3,0-.54.24-.54.54v.88c0,.3-.24.54-.54.54h-.92c-.3,0-.54-.24-.54-.54v-2.88c0-.3.24-.54.54-.54h2.93c.29,0,.53-.24.53-.54v-4.95c0-.29-.24-.53-.53-.53h-2.93c-.3,0-.54.24-.54.53v.95c0,.3-.24.54-.54.54h-.92c-.3,0-.54-.24-.54-.54v-2.95c0-.29.24-.53.54-.53h6.93c.29,0,.53.24.53.53v8.95Z"/>
</svg>
